<svg xmlns="http://www.w3.org/2000/svg" viewBox="0 0 800 800">
  <g>
    <path d="M0,0H800V800H0ZM374.4,665.707l0-.523c19.522,0,39.053-.375,58.563.1,20.594.5,41.019.921,60.98-5.688,52.09-17.247,69.852-86.22,28.151-124.454a96.517,96.517,0,0,0-63.706-26.015c-41.326-1.223-82.71-.487-124.07-.556-4.946-.008-9.918.438-14.832.064-9.838-.748-13.279-6.735-9.134-15.524a41.111,41.111,0,0,1,4.069-6.633q11.055-15.114,22.258-30.12c8-10.7,13.315-12.326,26.262-8.1,25.99,8.482,52.451,10.649,79.206,4.811,98.621-21.521,147.673-141.155,79.882-226.021-9.592-12.007-8.941-17.418,3.13-27.1,17.453-14,35.265-27.6,52.147-42.263,10.765-9.351,13.71-22.193,8.469-35.589-5.3-13.557-15.521-22.5-30.457-23.36-14.4-.828-25.727,5.675-32.669,18.578-10.474,19.468-20.71,39.065-30.964,58.651-5.985,11.432-12.539,13.522-24.04,7.326-49.911-26.891-99.4-24.689-147.458,3.942-64.12,38.2-86.916,118.285-52.821,184.025,5.437,10.484,13.278,19.848,20.775,29.11,12.377,15.292,12.894,22.565,1.166,38.778-2.743,3.791-5.538,7.545-8.344,11.29-10.75,14.347-22.061,28.351-27.217,46.015-7.616,26.087,2.909,46.641,29.016,53.613,10.594,2.83,22.084,3.393,33.137,3.212,33.027-.544,66.037-2.706,99.056-2.745,17.522-.02,35.362,1.363,51.788,9.053,11.737,5.494,17.947,14.574,17.642,27.761-.3,13.08-7.4,21.713-19.034,25.934-8.45,3.064-17.662,5.92-26.478,5.758-41.873-.769-83.729-2.556-125.587-4.09-12.185-.446-24.43-2.387-36.515-1.605a27.211,27.211,0,0,0-25.228,26.318c-.228,12.538,8.57,21.774,23.812,24.4a109.383,109.383,0,0,0,17.839,1.574C320.256,665.8,347.326,665.707,374.4,665.707Z" transform="translate(0 0)"/>
    <path d="M388.046,419.962c18.845.454,34.432-4.571,47.562-15.016,40.227-32,60.353-74.555,60.178-125.5-.105-30.4-14.412-54.674-42.585-68.592-28.752-14.2-56.552-10.144-81.718,8.38-38.074,28.025-59.85,66.071-63.522,113.364C304.2,381.082,341.224,419.965,388.046,419.962Z" transform="translate(0 0)"/>
  </g>
</svg>
